<svg width="786" height="182" viewBox="0 0 786 182" fill="none" xmlns="http://www.w3.org/2000/svg">
<g clip-path="url(#clip0_8_39)">
<path d="M81.132 10.3576C116.428 -2.61466 164.434 -4.53842 199.114 11.1506C203.696 13.2216 215.105 18.9523 216.56 23.8303C218.273 29.5822 212.138 34.8814 206.786 34.8987C206.214 34.8986 205.564 34.7395 204.862 34.4641C191.18 22.4304 165.114 14.2971 135.204 14.2971C91.0996 14.2971 55.3473 31.9755 55.3469 53.7825C55.3469 56.7273 56.0058 59.595 57.2414 62.3547C57.2586 62.3934 57.276 62.4322 57.2932 62.4709C65.3013 80.0974 96.606 93.2639 135.204 93.2639C173.802 93.2639 203.497 84.3258 210.933 66.3293C211.699 64.4737 216.241 60.3831 223.066 65.4377L223.074 65.4465C229.902 70.4979 226.785 114.731 221.321 127.049C206.989 159.365 173.523 181.241 132.255 181.241C87.2461 181.241 57.4178 160.016 45.8576 127.049C21.9581 121.418 -4.17978 100.901 0.573427 73.553C3.63917 55.9053 21.9112 46.0158 38.3234 53.4211C40.1361 31.119 62.0977 17.3497 81.132 10.3576ZM146.567 19.6067C147.441 19.5421 148.198 20.1882 148.293 21.0578C150.145 37.9652 168.167 47.3034 191.248 51.0793V51.0754C191.993 51.196 192.562 51.8073 192.613 52.5608L192.738 54.3215C192.803 55.2385 192.097 56.018 191.18 56.0569C162.544 57.2753 136.457 66.3645 129.082 87.8616C128.867 88.4856 128.311 88.9285 127.653 88.9758L126.9 89.0276C126.043 89.0878 125.298 88.4683 125.177 87.6203C122.753 70.4631 103.141 60.9093 79.0998 57.4133C78.3465 57.3055 77.7608 56.685 77.7092 55.9231L77.632 54.8342C77.5631 53.8914 78.3207 53.0991 79.2678 53.0989C108.588 53.228 135.299 42.9167 144.354 20.6877C144.59 20.1066 145.124 19.7065 145.748 19.6633L146.567 19.6067Z" fill="#161616"/>
</g>
<path d="M352.335 34.5308C370.803 34.5308 381.4 39.0722 392.904 46.7925L382.762 74.1919L380.491 73.8892C377.766 58.7513 370.651 39.0721 352.184 39.0718C333.867 39.0718 320.999 57.0862 320.999 86.4536C320.999 114.459 336.894 131.716 358.087 131.716C374.89 131.716 388.968 121.877 395.023 104.771L397.899 105.376C393.055 131.565 375.95 146.702 352.335 146.703C322.211 146.703 294.054 127.478 294.054 90.5415C294.054 53.7563 322.816 34.5308 352.335 34.5308ZM436.637 65.1099C457.073 65.11 469.334 75.1006 469.334 94.4771V137.469L479.931 143.07V145.189H449.655V130.203C446.174 137.469 438.907 146.703 424.678 146.703C410.297 146.703 401.668 138.68 401.668 127.175C401.668 114.459 411.356 106.739 429.824 101.895L449.655 96.7476V85.6968C449.655 74.6464 444.054 68.8942 436.334 68.894C428.159 68.894 420.893 75.5547 423.164 93.2661L403.03 90.0874C403.787 76.0091 417.109 65.1099 436.637 65.1099ZM686.992 138.68L697.589 143.524V145.189H674.579V126.267C670.492 139.74 660.501 146.703 649.45 146.703C635.675 146.703 625.532 137.771 625.532 120.666V76.0083L614.936 73.1323V71.3159L637.794 65.1099V120.514C637.794 133.381 644.454 138.68 653.234 138.68C663.074 138.68 672.157 131.414 674.579 116.276V76.0083L663.982 73.1323V71.3159L686.992 65.1099V138.68ZM732.309 65.1099C742.905 65.1099 752.443 69.3476 758.195 75.5542L754.41 87.9673L752.594 87.8159C749.869 76.4627 741.543 68.894 732.157 68.894C723.529 68.8942 716.717 74.1923 716.717 82.2153C716.717 88.7246 720.653 92.5091 729.433 95.2339L741.694 99.0181C754.107 102.803 762.282 110.069 762.282 123.087C762.282 136.409 750.171 146.703 733.52 146.703C718.533 146.702 707.634 139.891 702.79 132.473L708.542 119.303L710.208 119.455C713.236 133.381 722.318 142.918 733.672 142.918C743.36 142.918 750.626 136.106 750.626 127.175C750.626 119.152 746.236 113.551 736.699 110.523L724.589 106.739C713.69 103.408 705.969 97.5044 705.969 85.8481C705.969 73.4353 717.322 65.11 732.309 65.1099ZM579.098 65.1099C592.873 65.1099 602.259 74.9494 602.259 91.4497V137.772L612.553 143.221V145.189H575.011V143.221L584.547 137.772V91.2983C584.547 80.7018 579.551 76.0083 572.285 76.0083C564.111 76.0085 557.299 82.821 556.088 94.6284V137.772L565.625 143.221V145.189H528.991V143.221L538.527 137.772V91.2983C538.527 80.7018 533.532 76.0083 526.266 76.0083C518.394 76.0086 511.279 82.821 510.068 94.6284V137.772L519.605 143.221V145.189H482.063V143.221L492.509 137.772V79.0366L481.912 75.4028V73.4351L510.068 65.1099V85.0913C513.701 73.4352 522.33 65.1099 533.229 65.1099C544.886 65.1099 553.363 72.2242 555.482 84.7886C560.024 72.5269 569.107 65.1099 579.098 65.1099ZM785.814 145.189H773.704V133.23H785.814V145.189ZM440.572 102.955C427.402 106.89 421.952 113.702 421.952 123.542C421.952 130.959 426.797 136.408 434.214 136.409C442.086 136.409 447.385 131.565 449.655 124.147V100.38L440.572 102.955Z" fill="#161616"/>
<defs>
<clipPath id="clip0_8_39">
<rect width="226.97" height="181.233" fill="white"/>
</clipPath>
</defs>
</svg>
