<svg width="295" height="295" viewBox="0 0 295 295" fill="none" xmlns="http://www.w3.org/2000/svg">
<g clip-path="url(#clip0_14_153)">
<path d="M115.132 67.3581C150.428 54.3858 198.434 52.4611 233.114 68.1501C237.695 70.2211 249.104 75.9518 250.56 80.8298C252.273 86.5819 246.138 91.8819 240.786 91.8992C240.214 91.8991 239.564 91.7391 238.862 91.4636C225.18 79.4299 199.114 71.2976 169.204 71.2976C125.099 71.2977 89.3468 88.9759 89.3468 110.783C89.3469 113.728 90.0059 116.595 91.2413 119.354C91.2586 119.393 91.2759 119.433 91.2931 119.471C99.3015 137.098 130.606 150.263 169.204 150.263C207.802 150.263 237.497 141.325 244.933 123.329C245.699 121.473 250.242 117.383 257.066 122.437L257.074 122.446C263.903 127.497 260.786 171.731 255.322 184.049C240.99 216.365 207.523 238.241 166.255 238.241C121.246 238.241 91.4177 217.015 79.8576 184.049C55.9582 178.417 29.8204 157.901 34.5734 130.553C37.6389 112.905 55.911 103.015 72.3234 110.421C74.1361 88.1188 96.0978 74.3502 115.132 67.3581ZM180.567 76.6062C181.44 76.5416 182.198 77.1878 182.293 78.0574C184.144 94.9648 202.167 104.304 225.248 108.08V108.075C225.993 108.195 226.562 108.807 226.613 109.56L226.738 111.321C226.803 112.238 226.097 113.018 225.18 113.056C196.544 114.275 170.457 123.364 163.082 144.861C162.867 145.485 162.311 145.929 161.652 145.976L160.9 146.028C160.043 146.088 159.297 145.468 159.177 144.62C156.753 127.463 137.142 117.909 113.101 114.413C112.347 114.305 111.762 113.685 111.71 112.923L111.632 111.834C111.563 110.891 112.322 110.098 113.269 110.098C142.589 110.227 169.299 99.9162 178.354 77.6873C178.59 77.1062 179.124 76.7061 179.748 76.6628L180.567 76.6062Z" fill="url(#paint0_linear_14_153)"/>
</g>
<defs>
<linearGradient id="paint0_linear_14_153" x1="147.495" y1="57.002" x2="147.495" y2="238.241" gradientUnits="userSpaceOnUse">
<stop stop-color="#73C1F2"/>
<stop offset="1" stop-color="#C8EF77"/>
</linearGradient>
<clipPath id="clip0_14_153">
<rect width="226.97" height="181.233" fill="white" transform="translate(34 57)"/>
</clipPath>
</defs>
</svg>
